<svg xmlns="http://www.w3.org/2000/svg" xmlns:xlink="http://www.w3.org/1999/xlink" version="1.1" x="0px" y="0px" viewBox="0 0 100 125" enable-background="new 0 0 100 100" xml:space="preserve"><path d="M63.5,50c0,7.443-6.057,13.5-13.5,13.5c-7.444,0-13.5-6.057-13.5-13.5c0-6.927,5.245-12.645,11.972-13.407l-1.532-1.532  c-0.586-0.585-0.586-1.536,0-2.121c0.586-0.586,1.535-0.586,2.121,0l4,4c0.586,0.585,0.586,1.536,0,2.121l-4,4  c-0.581,0.581-1.534,0.588-2.122,0c-0.586-0.585-0.586-1.536,0-2.121l1.276-1.276C43.274,40.515,39.5,44.82,39.5,50  c0,5.79,4.71,10.5,10.5,10.5S60.5,55.79,60.5,50c0-2.805-1.092-5.442-3.075-7.425c-0.586-0.585-0.586-1.535,0-2.121  c0.587-0.586,1.535-0.586,2.121,0C62.096,43.003,63.5,46.394,63.5,50z"/><text x="0" y="115" fill="#000000" font-size="5px" font-weight="bold" font-family="'Helvetica Neue', Helvetica, Arial-Unicode, Arial, Sans-serif">Created by Setyo Ari Wibowo</text><text x="0" y="120" fill="#000000" font-size="5px" font-weight="bold" font-family="'Helvetica Neue', Helvetica, Arial-Unicode, Arial, Sans-serif">from the Noun Project</text></svg>